<svg xmlns="http://www.w3.org/2000/svg" viewBox="0 0 900 900" role="img" aria-label="Combinado de sushi">
  <defs>
    <radialGradient id="plate" cx="50%" cy="45%" r="58%">
      <stop offset="0" stop-color="#fff"/>
      <stop offset=".72" stop-color="#f4f4f5"/>
      <stop offset="1" stop-color="#d4d4d8"/>
    </radialGradient>
    <filter id="shadow" x="-20%" y="-20%" width="140%" height="140%">
      <feDropShadow dx="0" dy="26" stdDeviation="26" flood-color="#000" flood-opacity=".35"/>
    </filter>
  </defs>
  <circle cx="450" cy="460" r="315" fill="url(#plate)" filter="url(#shadow)"/>
  <circle cx="450" cy="460" r="260" fill="none" stroke="#e4e4e7" stroke-width="22"/>
  <g filter="url(#shadow)">
    <g transform="translate(254 250)"><rect width="150" height="150" rx="32" fill="#111113"/><circle cx="75" cy="75" r="50" fill="#fff"/><circle cx="75" cy="75" r="30" fill="#dc2626"/><circle cx="75" cy="75" r="12" fill="#facc15"/></g>
    <g transform="translate(496 250)"><rect width="150" height="150" rx="32" fill="#111113"/><circle cx="75" cy="75" r="50" fill="#fff"/><circle cx="75" cy="75" r="29" fill="#22c55e"/><circle cx="75" cy="75" r="12" fill="#f97316"/></g>
    <g transform="translate(254 492)"><rect width="150" height="150" rx="32" fill="#111113"/><circle cx="75" cy="75" r="50" fill="#fff"/><circle cx="75" cy="75" r="30" fill="#fb7185"/><circle cx="75" cy="75" r="12" fill="#111113"/></g>
    <g transform="translate(496 492)"><rect width="150" height="150" rx="32" fill="#111113"/><circle cx="75" cy="75" r="50" fill="#fff"/><circle cx="75" cy="75" r="29" fill="#f97316"/><circle cx="75" cy="75" r="12" fill="#22c55e"/></g>
  </g>
  <path d="M185 700c85 66 174 99 267 99 97 0 184-32 263-96" fill="none" stroke="#dc2626" stroke-width="18" stroke-linecap="round"/>
</svg>
